<svg width="561" height="288" viewBox="0 0 561 288" fill="none" xmlns="http://www.w3.org/2000/svg">
<g clip-path="url(#clip0_103_2)">
<mask id="mask0_103_2" style="mask-type:luminance" maskUnits="userSpaceOnUse" x="-23" y="5" width="584" height="273">
<path d="M561 5.23633H-22.3348V277.527H561V5.23633Z" fill="white"/>
</mask>
<g mask="url(#mask0_103_2)">
<path fill-rule="evenodd" clip-rule="evenodd" d="M38.2567 112.148L58.5319 88.2668H97.7026L107.832 109.566V136.546H88.3482L87.56 112.472H56.1466L56.7115 246.235L86.7979 245.79L87.1527 223.705H107.832V251.51L92.3291 272.678H52.1789L35.8744 251.105L38.2567 112.148Z" fill="white"/>
<path d="M127.684 88.2799L126.869 252.178L142.609 272.129L177.911 272.679L193.138 252.649V89.0392L173.431 88.5679L172.525 245.332L147.969 245.214L147.904 88.2668L127.684 88.2799Z" fill="white"/>
<path d="M262.285 88.2668H242.236L215.854 272.679H236.81L243.418 224.766L262.941 224.831L270.181 272.679H289.901L262.285 88.2668ZM246.847 198.361L252.996 150.305L259.145 198.361H246.847Z" fill="white"/>
<path d="M368.204 88.2668H313.576V272.679H367.272L383.011 251.995V110.39L368.204 88.2668ZM365.353 249.94H331.234V111.019H365.353V249.94Z" fill="white"/>
<path d="M398.882 169.692L400.091 170.465C400.091 170.465 403.625 163.788 406.384 159.848C407.093 158.827 407.921 157.924 408.841 157.138C411.403 154.913 416.711 150.855 419.102 149.598C419.102 149.598 423.385 147.503 428.679 147.241C428.785 147.241 428.798 147.071 428.693 147.058C424.909 146.731 415.646 146.103 408.315 147.215C408.315 147.215 400.735 148.603 398.028 150.082C398.028 150.082 402.403 153.538 402.259 157.675C402.101 161.812 398.882 169.692 398.882 169.692Z" fill="#B42025" stroke="#B42025" stroke-miterlimit="10"/>
<path d="M437.968 155.266C438.06 155.227 438.126 155.371 438.034 155.41C432.109 158.735 413.242 169.352 411.508 170.465C411.508 170.465 405.188 174.405 404.768 177.141C404.768 177.141 404.321 175.74 401.97 175.832L400.997 172.284L437.968 155.266Z" fill="#B42025" stroke="#B42025" stroke-miterlimit="10"/>
<path d="M474.939 125.432L481.311 125.392C481.311 125.392 484.911 119.148 490.442 116.766L503.659 109.068L474.229 121.858L474.939 125.432Z" fill="#B42025" stroke="#B42025" stroke-miterlimit="10"/>
<path d="M473.954 120.536C473.954 120.536 479.682 110.836 484.175 105.848C484.175 105.848 488.852 101.004 497.944 96.3178C497.944 96.3178 503.804 92.8747 513.473 95.3096C513.815 95.3882 513.973 94.8516 513.644 94.7207C510.189 93.2152 504.014 91.2515 495.934 91.6704C484.346 92.2595 477.921 93.3854 471.825 95.349C471.352 95.5061 471.339 96.2522 471.799 96.4224C473.783 97.1162 476.739 98.9751 477.672 103.91C477.672 103.91 478.867 111.084 473.021 120.287L473.954 120.536Z" fill="#B42025" stroke="#B42025" stroke-miterlimit="10"/>
<path d="M467.345 133.273L444.524 147.372C444.511 147.372 444.511 147.372 444.498 147.386H442.882C442.803 147.386 442.842 147.202 442.842 147.202L467.24 129.281C467.306 129.228 467.371 129.32 467.332 129.412C467.227 129.7 467.095 130.197 467.095 130.956C467.109 130.996 467.371 133.26 467.345 133.273Z" fill="#B42025" stroke="#B42025" stroke-miterlimit="10"/>
<path d="M469.92 123.691C469 123.782 463.732 124.188 462.064 121.937L429.349 135.682C429.087 135.787 429.205 136.245 429.481 136.166L470.052 125.981C470.17 125.955 470.262 125.798 470.235 125.628L470.065 123.861C470.065 123.769 469.999 123.691 469.92 123.691Z" fill="#B42025" stroke="#B42025" stroke-miterlimit="10"/>
<path d="M521.816 140.801C521.816 140.801 512.173 132.187 526.217 124.005C526.388 123.913 526.296 123.612 526.112 123.678C520.844 125.471 505.196 131.048 496.735 136.742C496.604 136.834 496.696 137.07 496.84 137.017C500.874 135.46 513.867 131.467 520.463 141.508L521.816 140.801Z" fill="#B42025" stroke="#B42025" stroke-miterlimit="10"/>
<path d="M519.083 148.145C519.083 148.145 486.277 150.606 483.413 153.591C483.413 153.591 480.01 151.719 482.428 150.017C482.428 150.017 487.499 151.509 502.358 148.158C517.231 144.807 520.134 143.458 520.134 143.458L520.358 146.338C520.345 146.325 519.11 146.731 519.083 148.145Z" fill="#B42025" stroke="#B42025" stroke-miterlimit="10"/>
<path d="M526.572 145.736C527.071 146.678 528.03 147.176 528.976 146.927C535.007 145.396 554.438 140.5 557.407 140.369C560.928 140.225 537.398 142.502 535.467 141.9C533.562 141.311 560.731 121.976 559.562 122.513C554.753 124.712 535.164 137.633 534.389 137.515C534.389 137.515 524.575 142.686 523.787 141.508C523.209 140.617 525.442 143.602 526.572 145.736Z" fill="#B42025" stroke="#B42025" stroke-miterlimit="10"/>
<path fill-rule="evenodd" clip-rule="evenodd" d="M395.19 175.976C395.309 176.683 395.23 177.442 394.836 178.005C394.074 179.092 394.612 182.05 395.046 183.948C395.295 184.93 395.019 185.964 394.376 186.684C393.338 187.849 393.154 189.316 394.008 192.942C394.783 196.175 398.251 196.476 400.327 196.345C401.116 196.293 401.904 196.031 402.613 195.547C407.317 192.34 424.791 190.86 426.972 190.69C427.129 190.677 427.287 190.651 427.431 190.599C438.467 187.051 442.882 189.931 444.038 190.991C444.248 191.175 444.419 191.41 444.55 191.659L451.868 205.169C452.21 205.797 452.762 206.242 453.392 206.412L474.781 212.133C475.294 212.277 475.819 212.225 476.305 211.989L486.553 207.054C486.619 207.028 486.671 207.001 486.724 206.962C487.433 206.543 492.334 203.506 491.861 200.469C491.69 199.33 491.69 198.27 491.782 197.38C491.914 196.097 492.794 194.971 493.937 194.879C497.116 194.631 497.064 188.491 495.054 180.505C492.767 171.381 510.832 170.452 510.832 170.452C514.089 170.406 514.967 169.593 516.205 168.445C516.709 167.977 517.274 167.454 518.085 166.904C520.883 165.006 522.92 165.765 522.92 165.765C527.373 166.171 528.779 165.006 529.922 163.972C536.307 158.225 532.327 153.761 530.605 152.281C530.172 151.915 529.87 151.378 529.738 150.776C529.029 147.49 528.135 146.443 527.479 146.155C526.756 145.841 526.257 145.095 526.02 144.27C525.639 142.961 525.219 141.979 524.785 141.246C523.393 138.85 520.003 140.185 520.318 143.026C520.345 143.223 520.371 143.327 520.371 143.327C520.447 148.616 519.872 148.937 519.408 149.196C519.237 149.292 519.081 149.378 518.978 149.703C518.807 150.252 518.899 151.326 519.057 152.295C519.28 153.695 518.518 155.044 517.31 155.436C515.05 156.169 510.688 157.033 502.687 156.929C492.321 156.798 483.085 155.463 479.091 154.795C477.816 154.585 476.91 153.316 477.002 151.876C477.159 149.545 477.751 146.312 479.787 145.278C483.098 143.602 482.717 140.055 482.717 140.055C482.835 134.02 478.762 133.509 478.762 133.509C478.762 133.509 478.762 135.748 478.381 130.577C478.145 127.435 476.923 126.204 476.003 125.72C475.307 125.367 474.834 124.633 474.689 123.796C474.164 120.745 473.27 117.669 470.354 118.703C467.936 119.554 468.186 123.298 468.541 125.432C468.672 126.244 468.488 127.068 468.028 127.697C466.531 129.765 467.017 134.425 467.332 136.494C467.424 137.096 467.332 137.711 467.069 138.235C465.979 140.382 466.333 143.052 466.701 144.636C466.912 145.54 466.701 146.495 466.136 147.189L462.799 151.313C462.655 151.496 462.55 151.692 462.445 151.902C460.645 155.593 451.645 162.257 451.645 162.257C452.352 163.345 424.463 175.215 412.531 180.295C409.382 181.635 407.344 182.503 407.238 182.574C406.739 182.914 404.821 181.88 404.952 178.437C405.031 176.565 404.111 175.911 403.27 175.714C402.403 175.518 401.746 174.745 401.483 173.79C400.813 171.303 399.552 168.711 396.938 169.666C394.665 170.491 394.849 173.908 395.19 175.976ZM477.33 139.963C474.19 140.081 468.16 140.958 468.606 142.921C468.974 144.571 469.552 148.695 466.268 154.14C462.931 159.612 461.669 166.603 461.669 166.603L468.882 187.627C468.882 187.627 485.804 194.303 490.56 193.112C495.316 191.921 493.911 186.671 493.911 186.671C493.911 186.671 489.22 177.481 494.528 172.782C496.223 171.289 504.776 168.069 510.964 168.462C513.419 168.627 515.211 167.32 517.634 165.552C517.894 165.362 518.162 165.166 518.439 164.967C521.177 162.986 522.276 163.328 523.442 163.69C524.48 164.012 525.573 164.351 527.925 163.081C530.222 161.835 530.326 161.12 530.449 160.266C530.453 160.239 530.457 160.215 530.461 160.188C530.592 159.324 528.477 158.356 527.833 158.565L516.456 162.361C516.456 162.361 490.153 168.475 483.085 166.603C483.015 166.585 482.945 166.566 482.877 166.548C479.93 165.774 478.486 165.396 476.213 163.003C473.927 160.594 472.968 156.798 473.218 154.428C473.387 152.784 473.399 151.437 473.41 150.336C473.431 147.859 473.441 146.622 475.215 146.024C477.843 145.134 484.464 139.701 477.33 139.963Z" fill="#B42025"/>
<path d="M395.046 183.948L394.405 184.094L394.408 184.109L395.046 183.948ZM394.376 186.684L393.886 186.248L393.884 186.25L394.376 186.684ZM394.008 192.942L393.368 193.091L393.369 193.094L394.008 192.942ZM402.613 195.547L402.243 195.006L402.241 195.008L402.613 195.547ZM426.971 190.69L427.023 191.342H427.025L426.971 190.69ZM427.431 190.599L427.229 189.975L427.218 189.979L427.207 189.983L427.431 190.599ZM444.038 190.991L443.593 191.473L443.606 191.484L444.038 190.991ZM444.55 191.659L443.968 191.964L443.972 191.969L444.55 191.659ZM451.868 205.169L451.29 205.479V205.48L451.868 205.169ZM453.392 206.412L453.22 207.045H453.222L453.392 206.412ZM474.781 212.133L474.96 211.503L474.952 211.501L474.781 212.133ZM476.305 211.989L476.019 211.4H476.018L476.305 211.989ZM486.553 207.054L486.309 206.446L486.288 206.454L486.267 206.465L486.553 207.054ZM486.724 206.962L486.389 206.399L486.359 206.418L486.33 206.439L486.724 206.962ZM491.861 200.469L491.211 200.566L491.212 200.57L491.861 200.469ZM493.937 194.879L493.885 194.227H493.884L493.937 194.879ZM510.832 170.452L510.823 169.797H510.81L510.798 169.798L510.832 170.452ZM522.92 165.765L522.69 166.378L522.772 166.409L522.859 166.417L522.92 165.765ZM529.922 163.972L529.482 163.486L529.481 163.487L529.922 163.972ZM530.605 152.281L531.035 151.785L531.03 151.783L530.605 152.281ZM526.02 144.27L526.652 144.09L526.651 144.088L526.02 144.27ZM524.785 141.246L524.216 141.574L524.219 141.578L524.785 141.246ZM520.318 143.026L519.665 143.098L519.667 143.113L520.318 143.026ZM520.371 143.327L521.028 143.318L521.026 143.242L521.008 143.169L520.371 143.327ZM518.978 149.703L518.351 149.506L518.35 149.509L518.978 149.703ZM519.057 152.295L519.706 152.192L519.705 152.19L519.057 152.295ZM479.091 154.795L479.2 154.15H479.197L479.091 154.795ZM477.002 151.876L476.346 151.831V151.834L477.002 151.876ZM479.787 145.278L479.49 144.694L479.489 144.695L479.787 145.278ZM482.717 140.055L482.06 140.041L482.059 140.083L482.064 140.124L482.717 140.055ZM478.762 133.509L478.844 132.86L478.105 132.767V133.509H478.762ZM476.003 125.72L476.311 125.141L476.301 125.137L476.003 125.72ZM470.354 118.703L470.572 119.321L470.574 119.32L470.354 118.703ZM468.541 125.432L469.19 125.328L469.188 125.325L468.541 125.432ZM468.028 127.697L467.497 127.311L467.495 127.314L468.028 127.697ZM467.069 138.235L467.655 138.531L467.656 138.528L467.069 138.235ZM466.136 147.189L465.627 146.777L465.625 146.778L466.136 147.189ZM462.799 151.313L462.288 150.902L462.283 150.908L462.799 151.313ZM462.445 151.902L461.857 151.609L461.853 151.616L462.445 151.902ZM451.645 162.257L451.253 161.732L450.758 162.097L451.093 162.613L451.645 162.257ZM407.238 182.574L406.874 182.029L406.867 182.033L407.238 182.574ZM404.952 178.437L404.295 178.41V178.412L404.952 178.437ZM403.27 175.714L403.42 175.077L403.416 175.075L403.27 175.714ZM401.483 173.79L400.849 173.96L400.85 173.963L401.483 173.79ZM396.938 169.666L397.162 170.281L397.164 170.28L396.938 169.666ZM468.606 142.921L469.247 142.779V142.776L468.606 142.921ZM477.33 139.963L477.306 139.308H477.305L477.33 139.963ZM466.268 154.14L466.829 154.481L466.831 154.477L466.268 154.14ZM461.669 166.603L461.023 166.486L460.993 166.654L461.048 166.815L461.669 166.603ZM468.882 187.627L468.261 187.839L468.358 188.124L468.64 188.236L468.882 187.627ZM493.91 186.671L494.545 186.502L494.528 186.436L494.496 186.374L493.91 186.671ZM494.528 172.782L494.093 172.291L494.092 172.292L494.528 172.782ZM510.964 168.462L511.008 167.809H511.006L510.964 168.462ZM518.439 164.967L518.824 165.497H518.826L518.439 164.967ZM527.925 163.081L528.238 163.656H528.239L527.925 163.081ZM530.461 160.188L529.812 160.09L529.811 160.093L530.461 160.188ZM527.833 158.565L527.63 157.943L527.624 157.945L527.833 158.565ZM516.456 162.361L516.605 162.999L516.634 162.991L516.664 162.982L516.456 162.361ZM475.215 146.024L475.425 146.643H475.426L475.215 146.024ZM395.374 178.379C395.901 177.628 395.973 176.675 395.838 175.869L394.543 176.082C394.644 176.689 394.558 177.256 394.297 177.631L395.374 178.379ZM395.686 183.803C395.471 182.863 395.236 181.684 395.147 180.618C395.102 180.084 395.096 179.598 395.139 179.195C395.184 178.78 395.276 178.52 395.374 178.379L394.297 177.631C394.014 178.034 393.887 178.551 393.833 179.055C393.777 179.572 393.788 180.148 393.837 180.727C393.936 181.887 394.186 183.135 394.405 184.094L395.686 183.803ZM394.866 187.12C395.651 186.242 395.986 184.985 395.683 183.787L394.408 184.109C394.604 184.875 394.388 185.687 393.886 186.248L394.866 187.12ZM394.648 192.793C394.223 190.994 394.076 189.8 394.138 188.937C394.197 188.113 394.447 187.592 394.867 187.119L393.884 186.25C393.267 186.942 392.906 187.737 392.827 188.844C392.75 189.911 392.937 191.264 393.368 193.091L394.648 192.793ZM400.285 195.692C399.287 195.755 398.01 195.708 396.913 195.293C395.847 194.89 394.973 194.153 394.646 192.79L393.369 193.094C393.817 194.964 395.065 195.995 396.446 196.517C397.797 197.029 399.292 197.067 400.369 196.999L400.285 195.692ZM402.241 195.008C401.629 195.425 400.955 195.648 400.284 195.692L400.369 196.999C401.275 196.938 402.177 196.637 402.985 196.086L402.241 195.008ZM426.92 190.038C425.823 190.123 420.891 190.537 415.64 191.333C413.015 191.73 410.298 192.224 407.934 192.824C405.594 193.418 403.521 194.134 402.243 195.006L402.984 196.088C404.057 195.356 405.932 194.684 408.259 194.094C410.563 193.509 413.233 193.022 415.837 192.626C421.044 191.838 425.939 191.427 427.023 191.342L426.92 190.038ZM427.207 189.983C427.137 190.008 427.042 190.028 426.916 190.038L427.025 191.342C427.216 191.326 427.437 191.294 427.656 191.214L427.207 189.983ZM444.483 190.51C443.109 189.25 438.429 186.375 427.229 189.975L427.632 191.222C438.505 187.726 442.655 190.612 443.593 191.473L444.483 190.51ZM445.131 191.354C444.972 191.053 444.755 190.748 444.47 190.499L443.606 191.484C443.741 191.601 443.866 191.768 443.968 191.964L445.131 191.354ZM452.446 204.858L445.128 191.349L443.972 191.969L451.29 205.479L452.446 204.858ZM453.564 205.78C453.12 205.661 452.709 205.342 452.446 204.858L451.29 205.48C451.711 206.254 452.403 206.823 453.22 207.045L453.564 205.78ZM474.952 211.501L453.563 205.78L453.222 207.045L474.61 212.765L474.952 211.501ZM476.018 211.4C475.671 211.569 475.311 211.602 474.96 211.503L474.603 212.763C475.277 212.953 475.968 212.881 476.593 212.578L476.018 211.4ZM486.267 206.465L476.019 211.4L476.592 212.578L486.839 207.643L486.267 206.465ZM486.33 206.439C486.331 206.437 486.332 206.437 486.334 206.436C486.335 206.435 486.336 206.435 486.336 206.435C486.335 206.435 486.328 206.439 486.309 206.446L486.797 207.661C486.893 207.623 487.004 207.571 487.118 207.486L486.33 206.439ZM491.212 200.57C491.3 201.137 491.145 201.745 490.785 202.386C490.424 203.027 489.884 203.653 489.283 204.224C488.08 205.365 486.727 206.2 486.389 206.399L487.059 207.525C487.431 207.305 488.881 206.412 490.188 205.171C490.843 204.551 491.483 203.822 491.931 203.026C492.379 202.23 492.658 201.32 492.51 200.368L491.212 200.57ZM491.129 197.313C491.032 198.254 491.032 199.369 491.211 200.566L492.51 200.372C492.348 199.291 492.348 198.286 492.435 197.446L491.129 197.313ZM493.884 194.227C492.317 194.353 491.28 195.838 491.129 197.313L492.435 197.446C492.547 196.356 493.269 195.589 493.989 195.531L493.884 194.227ZM494.416 180.664C495.416 184.633 495.913 188.092 495.785 190.559C495.721 191.799 495.501 192.723 495.161 193.333C494.839 193.911 494.425 194.184 493.885 194.227L493.988 195.531C495.038 195.45 495.81 194.864 496.309 193.969C496.79 193.108 497.028 191.953 497.098 190.627C497.236 187.967 496.701 184.362 495.691 180.346L494.416 180.664ZM510.832 170.452C510.798 169.798 510.798 169.798 510.798 169.798H510.797C510.796 169.798 510.796 169.798 510.794 169.798C510.792 169.798 510.788 169.798 510.782 169.798C510.773 169.8 510.759 169.8 510.742 169.801C510.705 169.804 510.652 169.806 510.585 169.812C510.449 169.821 510.252 169.835 510.002 169.857C509.504 169.902 508.796 169.975 507.955 170.092C506.276 170.323 504.048 170.732 501.883 171.435C499.729 172.133 497.569 173.144 496.089 174.622C494.574 176.137 493.783 178.135 494.416 180.664L495.691 180.347C495.181 178.314 495.791 176.775 497.019 175.548C498.283 174.286 500.212 173.354 502.289 172.68C504.354 172.009 506.499 171.614 508.136 171.388C508.952 171.275 509.638 171.204 510.119 171.161C510.358 171.14 510.547 171.126 510.675 171.118C510.739 171.113 510.788 171.11 510.819 171.108C510.836 171.108 510.848 171.106 510.856 171.106C510.86 171.106 510.863 171.106 510.864 171.105C510.865 171.105 510.865 171.105 510.867 171.105C510.867 171.105 510.867 171.105 510.832 170.452ZM515.758 167.966C515.131 168.546 514.675 168.963 514.005 169.264C513.337 169.567 512.401 169.775 510.823 169.797L510.842 171.106C512.521 171.083 513.653 170.86 514.547 170.457C515.439 170.055 516.04 169.491 516.653 168.924L515.758 167.966ZM517.716 166.363C516.86 166.943 516.264 167.497 515.758 167.966L516.653 168.924C517.156 168.458 517.688 167.964 518.454 167.445L517.716 166.363ZM522.92 165.765C523.149 165.152 523.149 165.152 523.149 165.151C523.148 165.151 523.148 165.151 523.148 165.151C523.147 165.151 523.147 165.151 523.147 165.151C523.146 165.15 523.143 165.15 523.142 165.15C523.139 165.149 523.135 165.147 523.131 165.146C523.123 165.142 523.113 165.139 523.101 165.135C523.076 165.128 523.044 165.117 523.004 165.105C522.923 165.083 522.812 165.057 522.673 165.032C522.393 164.982 522 164.943 521.515 164.969C520.539 165.023 519.215 165.346 517.716 166.363L518.454 167.445C519.753 166.564 520.846 166.318 521.587 166.276C521.962 166.256 522.252 166.287 522.443 166.32C522.537 166.337 522.607 166.354 522.649 166.366C522.67 166.373 522.684 166.376 522.691 166.379C522.695 166.38 522.696 166.38 522.696 166.38C522.696 166.38 522.695 166.38 522.694 166.38C522.694 166.379 522.691 166.379 522.691 166.379L522.69 166.378C522.69 166.376 522.69 166.378 522.92 165.765ZM529.481 163.487C528.924 163.99 528.367 164.466 527.443 164.791C526.51 165.12 525.146 165.311 522.979 165.113L522.859 166.417C525.146 166.625 526.713 166.437 527.881 166.026C529.06 165.611 529.776 164.988 530.364 164.456L529.481 163.487ZM530.176 152.778C531 153.485 532.291 154.851 532.66 156.656C533.015 158.394 532.55 160.725 529.482 163.486L530.362 164.457C533.68 161.471 534.417 158.697 533.948 156.396C533.492 154.163 531.932 152.558 531.035 151.785L530.176 152.778ZM529.096 150.913C529.253 151.636 529.621 152.308 530.18 152.78L531.03 151.783C530.722 151.522 530.486 151.119 530.381 150.637L529.096 150.913ZM527.214 146.754C527.368 146.821 527.662 147.027 528.015 147.659C528.365 148.29 528.749 149.306 529.096 150.913L530.381 150.637C530.018 148.959 529.6 147.81 529.163 147.024C528.727 146.239 528.246 145.777 527.743 145.555L527.214 146.754ZM525.388 144.449C525.655 145.381 526.247 146.334 527.216 146.754L527.743 145.555C527.266 145.347 526.857 144.808 526.652 144.09L525.388 144.449ZM524.219 141.578C524.618 142.253 525.019 143.181 525.39 144.452L526.651 144.088C526.259 142.741 525.819 141.705 525.351 140.913L524.219 141.578ZM520.971 142.954C520.846 141.83 521.444 141.063 522.154 140.781C522.85 140.505 523.692 140.671 524.216 141.574L525.354 140.917C524.486 139.425 522.937 139.061 521.669 139.564C520.414 140.061 519.475 141.382 519.665 143.098L520.971 142.954ZM520.371 143.327C521.008 143.169 521.008 143.169 521.008 143.169C521.008 143.17 521.009 143.172 521.009 143.172C521.009 143.173 521.009 143.173 521.009 143.172C521.009 143.172 521.008 143.17 521.008 143.166C521.005 143.158 521.003 143.145 520.999 143.126C520.992 143.088 520.98 143.025 520.97 142.94L519.667 143.113C519.682 143.224 519.697 143.312 519.71 143.374C519.715 143.406 519.72 143.431 519.724 143.45C519.727 143.46 519.728 143.467 519.73 143.473C519.731 143.475 519.731 143.478 519.732 143.48C519.732 143.482 519.732 143.483 519.732 143.483C519.732 143.484 519.734 143.484 519.734 143.484C519.734 143.484 519.734 143.486 520.371 143.327ZM519.728 149.767C519.852 149.699 520.076 149.577 520.28 149.319C520.477 149.072 520.62 148.744 520.729 148.306C520.944 147.443 521.066 145.966 521.028 143.318L519.714 143.336C519.752 145.977 519.624 147.306 519.455 147.99C519.371 148.325 519.289 148.458 519.249 148.509C519.217 148.548 519.196 148.564 519.087 148.625L519.728 149.767ZM519.605 149.899C519.618 149.856 519.63 149.833 519.635 149.826C519.639 149.818 519.639 149.819 519.635 149.822C519.634 149.824 519.634 149.819 519.728 149.767L519.087 148.625C519.01 148.667 518.847 148.753 518.698 148.904C518.539 149.065 518.428 149.264 518.351 149.506L519.605 149.899ZM519.705 152.19C519.628 151.721 519.571 151.237 519.551 150.811C519.53 150.366 519.556 150.056 519.606 149.896L518.35 149.509C518.229 149.899 518.216 150.4 518.238 150.872C518.261 151.362 518.326 151.899 518.408 152.399L519.705 152.19ZM517.513 156.058C519.073 155.552 519.973 153.863 519.706 152.192L518.408 152.397C518.588 153.528 517.964 154.536 517.106 154.815L517.513 156.058ZM502.678 157.583C510.725 157.688 515.164 156.821 517.513 156.058L517.106 154.815C514.935 155.518 510.65 156.379 502.696 156.274L502.678 157.583ZM478.982 155.44C482.994 156.111 492.264 157.452 502.678 157.583L502.696 156.274C492.377 156.143 483.175 154.815 479.2 154.15L478.982 155.44ZM476.346 151.834C476.237 153.546 477.317 155.167 478.984 155.44L479.197 154.15C478.315 154.004 477.582 153.085 477.657 151.918L476.346 151.834ZM479.489 144.695C478.246 145.326 477.511 146.588 477.069 147.879C476.619 149.185 476.426 150.64 476.346 151.831L477.657 151.92C477.733 150.781 477.916 149.454 478.311 148.303C478.712 147.135 479.292 146.264 480.085 145.86L479.489 144.695ZM482.717 140.055C482.064 140.124 482.064 140.124 482.064 140.124V140.121C482.064 140.121 482.064 140.123 482.064 140.124C482.064 140.128 482.064 140.134 482.065 140.144C482.066 140.163 482.069 140.193 482.07 140.237C482.073 140.32 482.076 140.447 482.068 140.606C482.053 140.925 482.003 141.369 481.863 141.856C481.582 142.822 480.946 143.957 479.49 144.694L480.084 145.862C481.939 144.923 482.768 143.446 483.124 142.22C483.301 141.611 483.363 141.063 483.38 140.665C483.389 140.464 483.388 140.301 483.383 140.184C483.38 140.127 483.378 140.079 483.375 140.045C483.374 140.03 483.372 140.015 483.372 140.005C483.371 140 483.371 139.996 483.371 139.993C483.371 139.99 483.37 139.989 483.37 139.988V139.985C483.37 139.985 483.37 139.985 482.717 140.055ZM478.762 133.509C478.681 134.159 478.679 134.159 478.679 134.158C478.679 134.158 478.678 134.158 478.677 134.158C478.677 134.158 478.675 134.158 478.675 134.158C478.675 134.158 478.675 134.158 478.677 134.158C478.679 134.158 478.685 134.159 478.694 134.161C478.714 134.164 478.745 134.17 478.788 134.18C478.875 134.2 479.005 134.236 479.165 134.296C479.486 134.416 479.918 134.631 480.349 135.01C481.187 135.747 482.116 137.188 482.06 140.041L483.374 140.068C483.435 136.886 482.387 135.055 481.218 134.028C480.645 133.524 480.067 133.235 479.628 133.07C479.407 132.988 479.221 132.937 479.085 132.905C479.018 132.89 478.962 132.879 478.921 132.872C478.901 132.868 478.884 132.865 478.871 132.863C478.865 132.863 478.859 132.862 478.854 132.861C478.853 132.861 478.85 132.86 478.849 132.86C478.848 132.86 478.846 132.86 478.846 132.86L478.845 132.86C478.845 132.86 478.844 132.86 478.762 133.509ZM477.726 130.625C477.821 131.919 477.894 132.757 477.948 133.284C477.975 133.546 477.999 133.739 478.02 133.876C478.03 133.944 478.041 134.006 478.053 134.06C478.061 134.092 478.083 134.196 478.138 134.296C478.155 134.327 478.187 134.38 478.239 134.436C478.289 134.489 478.394 134.583 478.56 134.625C478.997 134.736 479.242 134.404 479.281 134.343C479.339 134.253 479.363 134.17 479.369 134.145C479.38 134.108 479.386 134.074 479.39 134.052C479.403 133.969 479.41 133.873 479.412 133.808C479.415 133.734 479.418 133.659 479.418 133.605C479.419 133.577 479.419 133.554 479.419 133.537C479.419 133.529 479.419 133.522 479.419 133.517C479.419 133.515 479.419 133.513 479.419 133.512C479.419 133.511 479.419 133.51 479.419 133.51C479.419 133.51 479.419 133.51 479.419 133.51C479.419 133.51 479.419 133.509 478.762 133.509C478.105 133.509 478.105 133.509 478.105 133.509C478.105 133.509 478.105 133.509 478.105 133.509C478.105 133.51 478.105 133.512 478.105 133.514C478.105 133.517 478.105 133.522 478.105 133.529C478.105 133.543 478.105 133.562 478.104 133.586C478.104 133.633 478.103 133.693 478.1 133.748C478.097 133.812 478.093 133.84 478.093 133.838C478.095 133.835 478.097 133.819 478.104 133.796C478.107 133.785 478.125 133.713 478.179 133.63C478.214 133.576 478.453 133.247 478.886 133.357C479.05 133.398 479.151 133.491 479.198 133.541C479.248 133.593 479.277 133.643 479.29 133.668C479.334 133.747 479.343 133.809 479.335 133.773C479.332 133.761 479.327 133.732 479.318 133.678C479.302 133.572 479.281 133.404 479.255 133.149C479.202 132.642 479.131 131.82 479.037 130.529L477.726 130.625ZM475.696 126.299C476.376 126.657 477.502 127.658 477.726 130.625L479.037 130.529C478.786 127.211 477.469 125.752 476.311 125.141L475.696 126.299ZM474.042 123.906C474.214 124.903 474.787 125.837 475.705 126.303L476.301 125.137C475.827 124.896 475.454 124.364 475.337 123.685L474.042 123.906ZM470.574 119.32C471.193 119.1 471.631 119.123 471.954 119.245C472.284 119.371 472.586 119.636 472.864 120.07C473.439 120.966 473.778 122.373 474.042 123.906L475.337 123.685C475.076 122.168 474.705 120.512 473.972 119.366C473.596 118.779 473.096 118.278 472.422 118.022C471.74 117.763 470.973 117.789 470.133 118.087L470.574 119.32ZM469.188 125.325C469.015 124.281 468.877 122.891 469.057 121.683C469.24 120.459 469.71 119.624 470.572 119.321L470.134 118.086C468.579 118.634 467.967 120.096 467.758 121.49C467.547 122.9 467.712 124.45 467.893 125.539L469.188 125.325ZM468.559 128.082C469.129 127.302 469.346 126.298 469.19 125.328L467.892 125.536C467.998 126.189 467.846 126.834 467.497 127.311L468.559 128.082ZM467.981 136.396C467.826 135.378 467.631 133.736 467.656 132.105C467.683 130.435 467.94 128.936 468.56 128.08L467.495 127.314C466.619 128.525 466.37 130.391 466.343 132.085C466.316 133.819 466.523 135.541 466.683 136.592L467.981 136.396ZM467.656 138.528C467.984 137.877 468.093 137.125 467.981 136.396L466.683 136.592C466.755 137.067 466.68 137.545 466.482 137.942L467.656 138.528ZM467.341 144.488C466.978 142.929 466.676 140.458 467.655 138.531L466.483 137.939C465.281 140.306 465.687 143.175 466.061 144.784L467.341 144.488ZM466.646 147.601C467.345 146.743 467.595 145.579 467.341 144.488L466.061 144.784C466.228 145.5 466.058 146.248 465.627 146.777L466.646 147.601ZM463.31 151.724L466.647 147.6L465.625 146.778L462.288 150.902L463.31 151.724ZM463.032 152.195C463.134 151.991 463.214 151.846 463.316 151.717L462.283 150.908C462.094 151.148 461.965 151.394 461.857 151.609L463.032 152.195ZM451.645 162.257C452.036 162.782 452.036 162.782 452.036 162.782C452.036 162.782 452.036 162.782 452.038 162.782C452.038 162.782 452.038 162.782 452.039 162.78C452.04 162.78 452.042 162.779 452.044 162.776C452.048 162.774 452.055 162.769 452.064 162.762C452.081 162.749 452.107 162.729 452.142 162.704C452.209 162.653 452.307 162.58 452.433 162.485C452.686 162.293 453.047 162.016 453.486 161.673C454.362 160.986 455.551 160.031 456.799 158.959C458.045 157.888 459.356 156.694 460.472 155.529C461.577 154.377 462.538 153.207 463.036 152.187L461.853 151.616C461.451 152.442 460.612 153.49 459.523 154.625C458.447 155.748 457.17 156.912 455.941 157.968C454.713 159.023 453.539 159.965 452.674 160.643C452.24 160.982 451.884 161.255 451.637 161.442C451.514 161.537 451.416 161.609 451.352 161.658C451.319 161.682 451.294 161.7 451.277 161.713C451.269 161.72 451.263 161.724 451.259 161.727C451.257 161.729 451.255 161.729 451.255 161.73C451.253 161.73 451.253 161.73 451.253 161.732C451.253 161.732 451.253 161.732 451.645 162.257ZM412.79 180.897C418.755 178.357 428.715 174.117 437.097 170.376C441.286 168.506 445.089 166.757 447.803 165.405C449.158 164.731 450.256 164.148 451 163.694C451.366 163.47 451.675 163.261 451.888 163.074C451.989 162.985 452.109 162.867 452.194 162.723C452.27 162.596 452.424 162.252 452.197 161.901L451.093 162.613C450.909 162.33 451.052 162.075 451.063 162.056C451.084 162.022 451.085 162.033 451.018 162.092C450.895 162.2 450.665 162.363 450.313 162.577C449.62 163 448.563 163.563 447.216 164.235C444.527 165.573 440.746 167.312 436.56 169.182C428.191 172.918 418.241 177.153 412.274 179.693L412.79 180.897ZM407.602 183.118C407.561 183.146 407.545 183.15 407.643 183.105C407.71 183.074 407.806 183.031 407.933 182.976C408.185 182.864 408.546 182.709 409.004 182.511C409.919 182.118 411.215 181.567 412.79 180.897L412.274 179.693C410.7 180.363 409.402 180.915 408.485 181.309C408.026 181.506 407.66 181.664 407.402 181.778C407.273 181.834 407.168 181.881 407.092 181.917C407.045 181.938 406.941 181.985 406.874 182.029L407.602 183.118ZM404.295 178.412C404.225 180.257 404.702 181.541 405.347 182.336C405.668 182.73 406.034 183.008 406.398 183.159C406.722 183.294 407.209 183.387 407.608 183.114L406.867 182.033C407.017 181.931 407.078 182.023 406.904 181.951C406.773 181.897 406.574 181.766 406.368 181.512C405.964 181.015 405.547 180.06 405.609 178.462L404.295 178.412ZM403.12 176.352C403.436 176.425 403.726 176.574 403.935 176.845C404.143 177.116 404.33 177.584 404.295 178.41L405.608 178.465C405.652 177.419 405.42 176.623 404.977 176.049C404.535 175.476 403.946 175.2 403.42 175.077L403.12 176.352ZM400.85 173.963C401.156 175.075 401.952 176.087 403.124 176.353L403.416 175.075C402.854 174.948 402.336 174.416 402.117 173.617L400.85 173.963ZM397.164 170.28C397.706 170.082 398.129 170.084 398.47 170.185C398.815 170.288 399.138 170.513 399.442 170.864C400.067 171.587 400.519 172.736 400.849 173.96L402.118 173.62C401.778 172.356 401.264 170.966 400.438 170.009C400.016 169.522 399.49 169.123 398.844 168.93C398.191 168.737 397.476 168.772 396.712 169.052L397.164 170.28ZM395.838 175.87C395.671 174.859 395.553 173.57 395.732 172.458C395.913 171.337 396.357 170.573 397.162 170.281L396.713 169.051C395.244 169.584 394.645 170.941 394.435 172.252C394.223 173.571 394.366 175.024 394.543 176.082L395.838 175.87ZM469.247 142.776C469.229 142.696 469.22 142.508 469.699 142.195C470.161 141.894 470.888 141.618 471.788 141.383C473.574 140.92 475.817 140.675 477.355 140.617L477.305 139.308C475.704 139.369 473.361 139.621 471.457 140.116C470.514 140.362 469.621 140.68 468.979 141.099C468.355 141.508 467.76 142.164 467.965 143.065L469.247 142.776ZM466.831 154.477C470.224 148.852 469.642 144.546 469.247 142.779L467.965 143.063C468.307 144.594 468.881 148.537 465.704 153.803L466.831 154.477ZM461.669 166.603C462.316 166.718 462.316 166.718 462.316 166.718C462.316 166.718 462.316 166.717 462.317 166.716C462.317 166.713 462.318 166.708 462.318 166.701C462.321 166.689 462.325 166.671 462.33 166.646C462.339 166.595 462.354 166.52 462.374 166.421C462.414 166.225 462.475 165.935 462.559 165.571C462.727 164.842 462.985 163.811 463.346 162.612C464.071 160.207 465.201 157.149 466.829 154.481L465.707 153.8C463.997 156.603 462.828 159.777 462.088 162.236C461.717 163.468 461.451 164.527 461.278 165.279C461.191 165.655 461.128 165.955 461.086 166.162C461.065 166.265 461.049 166.345 461.039 166.4C461.033 166.428 461.03 166.448 461.027 166.463C461.026 166.471 461.024 166.476 461.024 166.48C461.024 166.482 461.023 166.485 461.023 166.486C461.023 166.486 461.023 166.486 461.669 166.603ZM469.504 187.415L462.291 166.391L461.048 166.815L468.261 187.839L469.504 187.415ZM490.4 192.477C489.906 192.601 489.203 192.632 488.312 192.566C487.432 192.499 486.41 192.342 485.298 192.116C483.075 191.664 480.538 190.949 478.135 190.191C475.735 189.436 473.482 188.641 471.826 188.037C471 187.734 470.324 187.479 469.853 187.3C469.619 187.211 469.437 187.14 469.312 187.091C469.25 187.068 469.203 187.05 469.171 187.037C469.156 187.03 469.144 187.026 469.136 187.022C469.132 187.021 469.129 187.02 469.127 187.02C469.125 187.02 469.125 187.018 469.125 187.018C469.125 187.018 469.124 187.018 468.882 187.627C468.64 188.236 468.64 188.236 468.64 188.236C468.64 188.236 468.641 188.236 468.642 188.236C468.642 188.236 468.643 188.236 468.644 188.237C468.646 188.237 468.65 188.238 468.654 188.241C468.662 188.244 468.675 188.249 468.69 188.255C468.723 188.268 468.772 188.287 468.835 188.312C468.961 188.36 469.146 188.432 469.384 188.522C469.858 188.704 470.54 188.961 471.375 189.266C473.04 189.876 475.315 190.676 477.74 191.44C480.161 192.204 482.748 192.934 485.036 193.399C486.179 193.632 487.26 193.799 488.214 193.871C489.16 193.942 490.025 193.921 490.721 193.747L490.4 192.477ZM493.91 186.671C493.276 186.84 493.276 186.84 493.276 186.839C493.276 186.84 493.276 186.843 493.277 186.845C493.279 186.852 493.282 186.864 493.285 186.881C493.293 186.912 493.305 186.962 493.318 187.027C493.343 187.157 493.377 187.348 493.403 187.582C493.456 188.055 493.48 188.685 493.37 189.338C493.263 189.99 493.026 190.642 492.58 191.19C492.139 191.731 491.463 192.211 490.4 192.477L490.721 193.747C492.036 193.417 492.967 192.794 493.6 192.015C494.228 191.244 494.532 190.36 494.667 189.551C494.801 188.744 494.771 187.987 494.709 187.437C494.678 187.161 494.638 186.933 494.605 186.771C494.59 186.691 494.575 186.627 494.565 186.581C494.559 186.557 494.554 186.54 494.552 186.527C494.55 186.521 494.549 186.514 494.548 186.51C494.546 186.509 494.546 186.506 494.546 186.505L494.545 186.504C494.545 186.504 494.545 186.504 494.545 186.502C494.545 186.502 494.545 186.502 493.91 186.671ZM494.092 172.292C491.178 174.872 491.059 178.644 491.582 181.602C491.845 183.097 492.28 184.434 492.647 185.395C492.831 185.875 492.997 186.265 493.121 186.536C493.181 186.671 493.233 186.777 493.267 186.851C493.285 186.887 493.298 186.915 493.309 186.936C493.314 186.945 493.317 186.953 493.321 186.958C493.322 186.961 493.322 186.963 493.323 186.965C493.323 186.966 493.324 186.966 493.324 186.967C493.324 186.967 493.325 186.968 493.91 186.671C494.496 186.374 494.496 186.374 494.496 186.374C494.495 186.374 494.495 186.373 494.494 186.37C494.492 186.368 494.49 186.362 494.486 186.354C494.478 186.339 494.466 186.315 494.45 186.282C494.42 186.22 494.374 186.123 494.318 185.998C494.205 185.748 494.047 185.383 493.875 184.929C493.528 184.02 493.121 182.765 492.875 181.376C492.38 178.563 492.57 175.391 494.964 173.271L494.092 172.292ZM511.006 167.809C507.8 167.604 504.028 168.335 500.871 169.288C499.285 169.767 497.837 170.306 496.673 170.825C495.53 171.333 494.598 171.847 494.093 172.291L494.963 173.273C495.306 172.97 496.078 172.523 497.208 172.02C498.317 171.526 499.712 171.005 501.251 170.541C504.341 169.609 507.939 168.925 510.922 169.115L511.006 167.809ZM517.246 165.024C514.778 166.824 513.183 167.955 511.008 167.809L510.919 169.115C513.656 169.3 515.644 167.815 518.022 166.079L517.246 165.024ZM518.054 164.436C517.776 164.637 517.507 164.833 517.246 165.024L518.022 166.079C518.283 165.889 518.55 165.694 518.824 165.497L518.054 164.436ZM523.637 163.064C523.054 162.884 522.357 162.661 521.43 162.803C520.521 162.943 519.462 163.418 518.053 164.436L518.826 165.497C520.154 164.535 521.015 164.192 521.629 164.097C522.228 164.004 522.665 164.134 523.247 164.315L523.637 163.064ZM527.612 162.505C526.493 163.11 525.73 163.301 525.16 163.329C524.591 163.356 524.157 163.227 523.637 163.064L523.247 164.315C523.766 164.476 524.398 164.677 525.223 164.637C526.046 164.597 527.004 164.324 528.238 163.656L527.612 162.505ZM529.8 160.171C529.738 160.593 529.696 160.839 529.474 161.137C529.231 161.465 528.731 161.899 527.611 162.507L528.239 163.656C529.416 163.017 530.115 162.473 530.529 161.916C530.964 161.333 531.036 160.793 531.099 160.36L529.8 160.171ZM529.811 160.093C529.807 160.12 529.803 160.146 529.8 160.171L531.099 160.36C531.103 160.334 531.107 160.309 531.111 160.284L529.811 160.093ZM528.037 159.187C528.008 159.197 528.101 159.173 528.368 159.242C528.598 159.302 528.869 159.409 529.122 159.548C529.38 159.688 529.585 159.843 529.709 159.98C529.846 160.131 529.8 160.161 529.812 160.09L531.11 160.287C531.187 159.783 530.926 159.368 530.683 159.102C530.428 158.82 530.089 158.583 529.754 158.4C529.415 158.214 529.043 158.065 528.7 157.976C528.393 157.895 527.98 157.828 527.63 157.943L528.037 159.187ZM516.664 162.982L528.042 159.186L527.624 157.945L516.247 161.741L516.664 162.982ZM482.916 167.235C484.808 167.737 487.885 167.691 491.339 167.382C494.825 167.069 498.795 166.477 502.533 165.829C506.273 165.18 509.791 164.473 512.371 163.927C513.662 163.655 514.72 163.423 515.454 163.26C515.822 163.177 516.11 163.112 516.304 163.067C516.403 163.045 516.478 163.028 516.528 163.016C516.553 163.011 516.573 163.007 516.586 163.003C516.591 163.002 516.596 163 516.6 163C516.601 162.999 516.603 162.999 516.604 162.999C516.604 162.999 516.605 162.999 516.456 162.361C516.306 161.724 516.306 161.724 516.306 161.724C516.304 161.724 516.303 161.724 516.302 161.725C516.299 161.725 516.294 161.727 516.287 161.728C516.276 161.73 516.257 161.736 516.232 161.741C516.182 161.753 516.109 161.77 516.011 161.792C515.818 161.835 515.533 161.901 515.168 161.982C514.438 162.144 513.385 162.376 512.099 162.647C509.528 163.19 506.028 163.894 502.308 164.54C498.586 165.185 494.657 165.77 491.222 166.078C487.757 166.388 484.895 166.405 483.253 165.971L482.916 167.235ZM482.71 167.182C482.779 167.2 482.847 167.217 482.916 167.235L483.253 165.971C483.182 165.952 483.113 165.934 483.045 165.916L482.71 167.182ZM475.736 163.452C476.912 164.689 477.903 165.438 479.005 165.972C480.088 166.496 481.253 166.799 482.71 167.182L483.045 165.916C481.555 165.524 480.524 165.251 479.579 164.794C478.654 164.346 477.787 163.707 476.69 162.553L475.736 163.452ZM472.565 154.36C472.428 155.652 472.623 157.286 473.139 158.899C473.655 160.516 474.509 162.161 475.736 163.452L476.69 162.553C475.631 161.436 474.863 159.979 474.391 158.502C473.918 157.023 473.758 155.574 473.871 154.496L472.565 154.36ZM472.753 150.331C472.742 151.431 472.73 152.749 472.565 154.36L473.871 154.496C474.044 152.82 474.056 151.445 474.067 150.343L472.753 150.331ZM475.005 145.404C474.496 145.575 474.072 145.807 473.734 146.129C473.391 146.455 473.172 146.841 473.03 147.273C472.765 148.086 472.763 149.136 472.753 150.331L474.067 150.343C474.077 149.062 474.092 148.253 474.279 147.679C474.366 147.416 474.482 147.227 474.642 147.075C474.805 146.919 475.047 146.772 475.425 146.643L475.005 145.404ZM477.354 140.617C478.213 140.585 478.821 140.642 479.234 140.746C479.653 140.852 479.796 140.987 479.841 141.049C479.87 141.091 479.905 141.17 479.854 141.362C479.799 141.568 479.657 141.84 479.41 142.166C478.918 142.813 478.124 143.524 477.274 144.134C476.42 144.745 475.573 145.211 475.003 145.405L475.426 146.643C476.17 146.392 477.137 145.845 478.041 145.195C478.949 144.545 479.857 143.746 480.457 142.957C480.755 142.564 481.007 142.136 481.123 141.699C481.244 141.25 481.229 140.743 480.917 140.299C480.62 139.875 480.131 139.621 479.557 139.477C478.976 139.331 478.23 139.274 477.306 139.308L477.354 140.617Z" fill="#B42025"/>
<path d="M353.437 183.15L395.387 177.207C395.387 177.207 394.507 174.772 394.573 172.677C394.573 172.481 394.428 172.337 394.297 172.428C393.824 172.756 387.491 166.734 385.205 166.105C384.535 165.922 383.839 166.132 383.366 166.695C381.96 168.37 378.61 171.067 374.721 172.965C370.438 175.06 357.589 181.055 353.398 183.019" fill="#B42025"/>
<path d="M353.437 183.15L395.387 177.207C395.387 177.207 394.507 174.772 394.573 172.677C394.573 172.481 394.428 172.337 394.297 172.428C393.824 172.756 387.491 166.734 385.205 166.105C384.535 165.922 383.839 166.132 383.366 166.695C381.96 168.37 378.61 171.067 374.721 172.965C370.438 175.06 357.589 181.055 353.398 183.019" stroke="#B42025" stroke-miterlimit="10"/>
</g>
<path d="M481.003 143.857C480.255 144.461 478.815 140.856 479.687 140.026C564.284 59.5635 502.535 37.8985 382.978 28.1454C217.437 14.641 -54.5234 49.0908 25.6192 286.69C25.8072 287.248 24.4721 287.6 24.3046 287.237C-65.1346 93.5997 105.105 -18.3274 413.196 3.92709C513.48 11.171 599.1 48.4362 481.003 143.857Z" fill="#B42025"/>
</g>
<defs>
<clipPath id="clip0_103_2">
<rect width="561" height="288" fill="white"/>
</clipPath>
</defs>
</svg>
