<svg width="422" height="260" viewBox="0 0 422 260" fill="none" xmlns="http://www.w3.org/2000/svg">
<g clip-path="url(#clip0_85_57)">
<mask id="mask0_85_57" style="mask-type:luminance" maskUnits="userSpaceOnUse" x="0" y="41" width="422" height="208">
<path d="M422 41H0V249H422V41Z" fill="white"/>
</mask>
<g mask="url(#mask0_85_57)">
<path d="M100.676 71.0126L100 229.212L113.063 248.469L142.362 249L155 229.667V71.7455L138.644 71.2906L137.892 222.604L117.512 222.49L117.457 71L100.676 71.0126Z" fill="white"/>
<path d="M199.249 71H182.733L161 249H178.263L183.707 202.753L199.791 202.816L205.754 249H222L199.249 71ZM186.532 177.267L191.597 130.881L196.663 177.267H186.532Z" fill="white"/>
<path d="M273.632 71H228V249H272.853L286 229.035V92.3544L273.632 71ZM271.25 227.052H242.75V92.961H271.25V227.052Z" fill="white"/>
<path d="M298.71 165.18L299.63 165.77C299.63 165.77 302.32 160.67 304.42 157.66C304.96 156.88 305.59 156.19 306.29 155.59C308.24 153.89 312.28 150.79 314.1 149.83C314.1 149.83 317.36 148.23 321.39 148.03C321.47 148.03 321.48 147.9 321.4 147.89C318.52 147.64 311.47 147.16 305.89 148.01C305.89 148.01 300.12 149.07 298.06 150.2C298.06 150.2 301.39 152.84 301.28 156C301.16 159.16 298.71 165.18 298.71 165.18Z" fill="#B42025" stroke="#B42025" stroke-miterlimit="10"/>
<path d="M328.46 154.16C328.53 154.13 328.58 154.24 328.51 154.27C324 156.81 309.64 164.92 308.32 165.77C308.32 165.77 303.51 168.78 303.19 170.87C303.19 170.87 302.85 169.8 301.06 169.87L300.32 167.16L328.46 154.16Z" fill="#B42025" stroke="#B42025" stroke-miterlimit="10"/>
<path d="M356.6 131.37L361.45 131.34C361.45 131.34 364.19 126.57 368.4 124.75L378.46 118.87L356.06 128.64L356.6 131.37Z" fill="#B42025" stroke="#B42025" stroke-miterlimit="10"/>
<path d="M355.85 127.63C355.85 127.63 360.21 120.22 363.63 116.41C363.63 116.41 367.19 112.71 374.11 109.13C374.11 109.13 378.57 106.5 385.93 108.36C386.19 108.42 386.31 108.01 386.06 107.91C383.43 106.76 378.73 105.26 372.58 105.58C363.76 106.03 358.87 106.89 354.23 108.39C353.87 108.51 353.86 109.08 354.21 109.21C355.72 109.74 357.97 111.16 358.68 114.93C358.68 114.93 359.59 120.41 355.14 127.44L355.85 127.63Z" fill="#B42025" stroke="#B42025" stroke-miterlimit="10"/>
<path d="M350.82 137.36L333.45 148.13C333.44 148.13 333.44 148.13 333.43 148.14H332.2C332.14 148.14 332.17 148 332.17 148L350.74 134.31C350.79 134.27 350.84 134.34 350.81 134.41C350.73 134.63 350.63 135.01 350.63 135.59C350.64 135.62 350.84 137.35 350.82 137.36Z" fill="#B42025" stroke="#B42025" stroke-miterlimit="10"/>
<path d="M352.78 130.04C352.08 130.11 348.07 130.42 346.8 128.7L321.9 139.2C321.7 139.28 321.79 139.63 322 139.57L352.88 131.79C352.97 131.77 353.04 131.65 353.02 131.52L352.89 130.17C352.89 130.1 352.84 130.04 352.78 130.04Z" fill="#B42025" stroke="#B42025" stroke-miterlimit="10"/>
<path d="M392.28 143.11C392.28 143.11 384.94 136.53 395.63 130.28C395.76 130.21 395.69 129.98 395.55 130.03C391.54 131.4 379.63 135.66 373.19 140.01C373.09 140.08 373.16 140.26 373.27 140.22C376.34 139.03 386.23 135.98 391.25 143.65L392.28 143.11Z" fill="#B42025" stroke="#B42025" stroke-miterlimit="10"/>
<path d="M396.73 147.17C396.73 147.17 371.76 149.05 369.58 151.33C369.58 151.33 366.99 149.9 368.83 148.6C368.83 148.6 372.69 149.74 384 147.18C395.32 144.62 397.53 143.59 397.53 143.59L397.7 145.79C397.69 145.78 396.75 146.09 396.73 147.17Z" fill="#B42025" stroke="#B42025" stroke-miterlimit="10"/>
<path d="M395.9 146.88C396.28 147.6 397.01 147.98 397.73 147.79C402.32 146.62 417.11 142.88 419.37 142.78C422.05 142.67 404.14 144.41 402.67 143.95C401.22 143.5 421.9 128.73 421.01 129.14C417.35 130.82 402.44 140.69 401.85 140.6C401.85 140.6 394.38 144.55 393.78 143.65C393.34 142.97 395.04 145.25 395.9 146.88Z" fill="#B42025" stroke="#B42025" stroke-miterlimit="10"/>
<path fill-rule="evenodd" clip-rule="evenodd" d="M295.9 169.98C295.99 170.52 295.93 171.1 295.63 171.53C295.05 172.36 295.46 174.62 295.79 176.07C295.98 176.82 295.77 177.61 295.28 178.16C294.49 179.05 294.35 180.17 295 182.94C295.59 185.41 298.23 185.64 299.81 185.54C300.41 185.5 301.01 185.3 301.55 184.93C305.13 182.48 318.43 181.35 320.09 181.22C320.21 181.21 320.33 181.19 320.44 181.15C328.84 178.44 332.2 180.64 333.08 181.45C333.24 181.59 333.37 181.77 333.47 181.96L339.04 192.28C339.3 192.76 339.72 193.1 340.2 193.23L356.48 197.6C356.87 197.71 357.27 197.67 357.64 197.49L365.44 193.72C365.49 193.7 365.53 193.68 365.57 193.65C366.11 193.33 369.84 191.01 369.48 188.69C369.35 187.82 369.35 187.01 369.42 186.33C369.52 185.35 370.19 184.49 371.06 184.42C373.48 184.23 373.44 179.54 371.91 173.44C370.17 166.47 383.92 165.76 383.92 165.76C386.399 165.725 387.067 165.104 388.009 164.227C388.393 163.87 388.823 163.47 389.44 163.05C391.57 161.6 393.12 162.18 393.12 162.18C396.51 162.49 397.58 161.6 398.45 160.81C403.31 156.42 400.28 153.01 398.97 151.88C398.64 151.6 398.41 151.19 398.31 150.73C397.77 148.22 397.09 147.42 396.59 147.2C396.04 146.96 395.66 146.39 395.48 145.76C395.19 144.76 394.87 144.01 394.54 143.45C393.48 141.62 390.9 142.64 391.14 144.81C391.16 144.96 391.18 145.04 391.18 145.04C391.238 149.08 390.8 149.325 390.447 149.523C390.317 149.596 390.198 149.662 390.12 149.91C389.99 150.33 390.06 151.15 390.18 151.89C390.35 152.96 389.77 153.99 388.85 154.29C387.13 154.85 383.81 155.51 377.72 155.43C369.83 155.33 362.8 154.31 359.76 153.8C358.79 153.64 358.1 152.67 358.17 151.57C358.29 149.79 358.74 147.32 360.29 146.53C362.81 145.25 362.52 142.54 362.52 142.54C362.61 137.93 359.51 137.54 359.51 137.54C359.51 137.54 359.51 139.25 359.22 135.3C359.04 132.9 358.11 131.96 357.41 131.59C356.88 131.32 356.52 130.76 356.41 130.12C356.01 127.79 355.33 125.44 353.11 126.23C351.27 126.88 351.46 129.74 351.73 131.37C351.83 131.99 351.69 132.62 351.34 133.1C350.2 134.68 350.57 138.24 350.81 139.82C350.88 140.28 350.81 140.75 350.61 141.15C349.78 142.79 350.05 144.83 350.33 146.04C350.49 146.73 350.33 147.46 349.9 147.99L347.36 151.14C347.25 151.28 347.17 151.43 347.09 151.59C345.72 154.41 338.87 159.5 338.87 159.5C339.408 160.331 318.181 169.399 309.099 173.279C306.702 174.303 305.151 174.966 305.07 175.02C304.69 175.28 303.23 174.49 303.33 171.86C303.39 170.43 302.69 169.93 302.05 169.78C301.39 169.63 300.89 169.04 300.69 168.31C300.18 166.41 299.22 164.43 297.23 165.16C295.5 165.79 295.64 168.4 295.9 169.98ZM358.42 142.47C356.03 142.56 351.44 143.23 351.78 144.73C352.06 145.99 352.5 149.14 350 153.3C347.46 157.48 346.5 162.82 346.5 162.82L351.99 178.88C351.99 178.88 364.87 183.98 368.49 183.07C372.11 182.16 371.04 178.15 371.04 178.15C371.04 178.15 367.47 171.13 371.51 167.54C372.8 166.4 379.31 163.94 384.02 164.24C385.889 164.366 387.253 163.368 389.097 162.017C389.295 161.872 389.499 161.722 389.71 161.57C391.794 160.057 392.63 160.318 393.518 160.595C394.308 160.841 395.14 161.1 396.93 160.13C398.678 159.178 398.757 158.632 398.851 157.979C398.854 157.959 398.857 157.94 398.86 157.92C398.96 157.26 397.35 156.52 396.86 156.68L388.2 159.58C388.2 159.58 368.18 164.25 362.8 162.82C362.747 162.806 362.694 162.792 362.642 162.778C360.399 162.187 359.3 161.898 357.57 160.07C355.83 158.23 355.1 155.33 355.29 153.52C355.419 152.264 355.428 151.235 355.436 150.394C355.452 148.502 355.46 147.557 356.81 147.1C358.81 146.42 363.85 142.27 358.42 142.47Z" fill="#B42025"/>
<path d="M295.79 176.07L295.302 176.181L295.305 176.193L295.79 176.07ZM295.28 178.16L294.907 177.827L294.906 177.828L295.28 178.16ZM295 182.94L294.513 183.054L294.514 183.056L295 182.94ZM301.55 184.93L301.268 184.517L301.267 184.518L301.55 184.93ZM320.09 181.22L320.129 181.718H320.131L320.09 181.22ZM320.44 181.15L320.286 180.674L320.278 180.677L320.269 180.68L320.44 181.15ZM333.08 181.45L332.741 181.818L332.751 181.826L333.08 181.45ZM333.47 181.96L333.027 182.193L333.03 182.197L333.47 181.96ZM339.04 192.28L338.6 192.517V192.518L339.04 192.28ZM340.2 193.23L340.069 193.713H340.07L340.2 193.23ZM356.48 197.6L356.616 197.119L356.61 197.117L356.48 197.6ZM357.64 197.49L357.422 197.04H357.421L357.64 197.49ZM365.44 193.72L365.254 193.256L365.238 193.262L365.222 193.27L365.44 193.72ZM365.57 193.65L365.315 193.22L365.292 193.234L365.27 193.25L365.57 193.65ZM369.48 188.69L368.985 188.764L368.986 188.767L369.48 188.69ZM371.06 184.42L371.021 183.922H371.02L371.06 184.42ZM383.92 165.76L383.913 165.26H383.903L383.894 165.261L383.92 165.76ZM393.12 162.18L392.945 162.648L393.008 162.672L393.074 162.678L393.12 162.18ZM398.45 160.81L398.115 160.439L398.114 160.44L398.45 160.81ZM398.97 151.88L399.297 151.501L399.293 151.499L398.97 151.88ZM395.48 145.76L395.961 145.623L395.96 145.621L395.48 145.76ZM394.54 143.45L394.107 143.701L394.109 143.704L394.54 143.45ZM391.14 144.81L390.643 144.865L390.644 144.876L391.14 144.81ZM391.18 145.04L391.68 145.033L391.679 144.975L391.665 144.919L391.18 145.04ZM390.12 149.91L389.643 149.76L389.642 149.762L390.12 149.91ZM390.18 151.89L390.674 151.812L390.673 151.81L390.18 151.89ZM359.76 153.8L359.843 153.307H359.841L359.76 153.8ZM358.17 151.57L357.671 151.536V151.538L358.17 151.57ZM360.29 146.53L360.064 146.084L360.063 146.085L360.29 146.53ZM362.52 142.54L362.02 142.53L362.019 142.562L362.023 142.593L362.52 142.54ZM359.51 137.54L359.572 137.044L359.01 136.973V137.54H359.51ZM357.41 131.59L357.644 131.148L357.637 131.145L357.41 131.59ZM353.11 126.23L353.276 126.702L353.278 126.701L353.11 126.23ZM351.73 131.37L352.224 131.29L352.223 131.288L351.73 131.37ZM351.34 133.1L350.936 132.805L350.934 132.808L351.34 133.1ZM350.61 141.15L351.056 141.376L351.057 141.374L350.61 141.15ZM349.9 147.99L349.512 147.675L349.511 147.676L349.9 147.99ZM347.36 151.14L346.971 150.826L346.967 150.831L347.36 151.14ZM347.09 151.59L346.643 151.366L346.64 151.372L347.09 151.59ZM338.87 159.5L338.572 159.099L338.195 159.378L338.45 159.772L338.87 159.5ZM305.07 175.02L304.793 174.604L304.788 174.607L305.07 175.02ZM303.33 171.86L302.83 171.839V171.841L303.33 171.86ZM302.05 169.78L302.164 169.293L302.161 169.292L302.05 169.78ZM300.69 168.31L300.207 168.44L300.208 168.442L300.69 168.31ZM297.23 165.16L297.401 165.63L297.402 165.629L297.23 165.16ZM351.78 144.73L352.268 144.621V144.619L351.78 144.73ZM358.42 142.47L358.402 141.97H358.401L358.42 142.47ZM350 153.3L350.427 153.56L350.429 153.557L350 153.3ZM346.5 162.82L346.008 162.731L345.985 162.859L346.027 162.982L346.5 162.82ZM351.99 178.88L351.517 179.042L351.591 179.26L351.806 179.345L351.99 178.88ZM371.04 178.15L371.523 178.021L371.51 177.97L371.486 177.923L371.04 178.15ZM371.51 167.54L371.179 167.165L371.178 167.166L371.51 167.54ZM384.02 164.24L384.054 163.741H384.052L384.02 164.24ZM389.71 161.57L390.003 161.975H390.004L389.71 161.57ZM396.93 160.13L397.168 160.569H397.169L396.93 160.13ZM398.86 157.92L398.366 157.845L398.365 157.847L398.86 157.92ZM396.86 156.68L396.705 156.205L396.701 156.206L396.86 156.68ZM388.2 159.58L388.314 160.067L388.336 160.061L388.359 160.054L388.2 159.58ZM356.81 147.1L356.97 147.573H356.971L356.81 147.1ZM296.04 171.816C296.441 171.242 296.496 170.514 296.393 169.898L295.407 170.061C295.484 170.525 295.419 170.958 295.22 171.244L296.04 171.816ZM296.277 175.959C296.114 175.241 295.935 174.34 295.867 173.526C295.833 173.118 295.828 172.747 295.861 172.439C295.895 172.122 295.965 171.923 296.04 171.816L295.22 171.244C295.005 171.552 294.908 171.947 294.867 172.332C294.824 172.727 294.833 173.167 294.87 173.609C294.945 174.495 295.136 175.449 295.302 176.181L296.277 175.959ZM295.653 178.493C296.251 177.822 296.506 176.862 296.275 175.947L295.305 176.193C295.454 176.778 295.289 177.398 294.907 177.827L295.653 178.493ZM295.487 182.826C295.164 181.452 295.052 180.54 295.099 179.881C295.144 179.251 295.334 178.853 295.654 178.492L294.906 177.828C294.436 178.357 294.161 178.964 294.101 179.81C294.043 180.625 294.185 181.658 294.513 183.054L295.487 182.826ZM299.778 185.041C299.018 185.089 298.046 185.053 297.211 184.736C296.4 184.428 295.735 183.865 295.486 182.824L294.514 183.056C294.855 184.485 295.805 185.272 296.856 185.671C297.884 186.062 299.022 186.091 299.842 186.039L299.778 185.041ZM301.267 184.518C300.801 184.837 300.288 185.007 299.777 185.041L299.842 186.039C300.531 185.993 301.218 185.763 301.833 185.342L301.267 184.518ZM320.051 180.722C319.216 180.787 315.462 181.103 311.465 181.711C309.467 182.014 307.399 182.392 305.6 182.85C303.819 183.304 302.241 183.851 301.268 184.517L301.832 185.343C302.649 184.784 304.076 184.271 305.847 183.82C307.601 183.373 309.633 183.001 311.615 182.699C315.578 182.097 319.304 181.783 320.129 181.718L320.051 180.722ZM320.269 180.68C320.216 180.699 320.144 180.714 320.048 180.722L320.131 181.718C320.276 181.706 320.444 181.681 320.611 181.62L320.269 180.68ZM333.419 181.082C332.373 180.12 328.811 177.924 320.286 180.674L320.593 181.626C328.869 178.956 332.027 181.16 332.741 181.818L333.419 181.082ZM333.912 181.727C333.791 181.497 333.626 181.264 333.409 181.074L332.751 181.826C332.854 181.916 332.949 182.043 333.027 182.193L333.912 181.727ZM339.48 192.043L333.91 181.723L333.03 182.197L338.6 192.517L339.48 192.043ZM340.331 192.747C339.993 192.656 339.68 192.412 339.48 192.043L338.6 192.518C338.92 193.109 339.447 193.544 340.069 193.713L340.331 192.747ZM356.61 197.117L340.33 192.747L340.07 193.713L356.35 198.083L356.61 197.117ZM357.421 197.04C357.157 197.169 356.883 197.194 356.616 197.119L356.344 198.081C356.857 198.226 357.383 198.171 357.859 197.94L357.421 197.04ZM365.222 193.27L357.422 197.04L357.858 197.94L365.658 194.17L365.222 193.27ZM365.27 193.25C365.271 193.249 365.272 193.249 365.273 193.248C365.274 193.247 365.275 193.247 365.275 193.247C365.274 193.247 365.269 193.25 365.254 193.256L365.626 194.184C365.699 194.155 365.783 194.115 365.87 194.05L365.27 193.25ZM368.986 188.767C369.053 189.2 368.935 189.665 368.661 190.154C368.386 190.644 367.975 191.122 367.518 191.558C366.602 192.43 365.572 193.068 365.315 193.22L365.825 194.08C366.108 193.912 367.212 193.23 368.207 192.282C368.705 191.808 369.192 191.251 369.533 190.643C369.874 190.035 370.087 189.34 369.974 188.613L368.986 188.767ZM368.923 186.279C368.849 186.998 368.849 187.85 368.985 188.764L369.974 188.616C369.851 187.79 369.851 187.022 369.917 186.381L368.923 186.279ZM371.02 183.922C369.827 184.018 369.038 185.152 368.923 186.279L369.917 186.381C370.002 185.548 370.552 184.962 371.1 184.918L371.02 183.922ZM371.425 173.561C372.186 176.593 372.564 179.235 372.467 181.12C372.418 182.067 372.251 182.773 371.992 183.239C371.747 183.68 371.432 183.889 371.021 183.922L371.099 184.918C371.898 184.856 372.486 184.408 372.866 183.725C373.232 183.067 373.413 182.185 373.466 181.172C373.571 179.14 373.164 176.386 372.395 173.318L371.425 173.561ZM383.92 165.76C383.894 165.261 383.894 165.261 383.894 165.261H383.893C383.892 165.261 383.892 165.261 383.891 165.261C383.889 165.261 383.886 165.261 383.882 165.261C383.875 165.262 383.864 165.262 383.851 165.263C383.823 165.265 383.783 165.267 383.732 165.271C383.628 165.278 383.478 165.289 383.288 165.306C382.909 165.34 382.37 165.396 381.73 165.485C380.452 165.662 378.756 165.974 377.108 166.511C375.469 167.044 373.825 167.817 372.698 168.946C371.545 170.103 370.943 171.629 371.425 173.561L372.395 173.319C372.007 171.766 372.471 170.59 373.406 169.653C374.368 168.689 375.836 167.977 377.417 167.462C378.989 166.95 380.622 166.648 381.868 166.475C382.489 166.389 383.011 166.335 383.377 166.302C383.559 166.286 383.703 166.275 383.8 166.269C383.849 166.265 383.886 166.263 383.91 166.261C383.923 166.261 383.932 166.26 383.938 166.26C383.941 166.26 383.943 166.26 383.944 166.259C383.945 166.259 383.945 166.259 383.946 166.259C383.946 166.259 383.946 166.259 383.92 165.76ZM387.669 163.861C387.192 164.304 386.845 164.623 386.335 164.853C385.826 165.084 385.114 165.243 383.913 165.26L383.927 166.26C385.205 166.242 386.067 166.072 386.747 165.764C387.426 165.457 387.884 165.026 388.35 164.593L387.669 163.861ZM389.159 162.637C388.508 163.08 388.054 163.503 387.669 163.861L388.35 164.593C388.733 164.237 389.138 163.86 389.721 163.463L389.159 162.637ZM393.12 162.18C393.295 161.712 393.295 161.712 393.295 161.711C393.294 161.711 393.294 161.711 393.294 161.711C393.293 161.711 393.293 161.711 393.293 161.711C393.292 161.71 393.29 161.71 393.289 161.71C393.287 161.709 393.284 161.708 393.281 161.707C393.275 161.704 393.267 161.702 393.258 161.699C393.239 161.693 393.215 161.685 393.184 161.676C393.123 161.659 393.038 161.639 392.932 161.62C392.719 161.582 392.42 161.552 392.051 161.572C391.308 161.613 390.3 161.86 389.159 162.637L389.721 163.463C390.71 162.79 391.542 162.602 392.106 162.57C392.391 162.555 392.612 162.579 392.757 162.604C392.829 162.617 392.882 162.63 392.914 162.639C392.93 162.644 392.941 162.647 392.946 162.649C392.949 162.65 392.95 162.65 392.95 162.65C392.95 162.65 392.949 162.65 392.948 162.65C392.948 162.649 392.946 162.649 392.946 162.649L392.945 162.648C392.945 162.647 392.945 162.648 393.12 162.18ZM398.114 160.44C397.69 160.824 397.266 161.188 396.563 161.436C395.853 161.687 394.815 161.833 393.165 161.682L393.074 162.678C394.815 162.837 396.007 162.693 396.896 162.379C397.794 162.062 398.339 161.586 398.786 161.18L398.114 160.44ZM398.643 152.259C399.27 152.799 400.253 153.843 400.534 155.222C400.804 156.549 400.45 158.33 398.115 160.439L398.785 161.181C401.31 158.9 401.871 156.781 401.514 155.023C401.167 153.317 399.98 152.091 399.297 151.501L398.643 152.259ZM397.821 150.835C397.941 151.387 398.221 151.9 398.646 152.261L399.293 151.499C399.059 151.3 398.879 150.992 398.799 150.624L397.821 150.835ZM396.389 147.658C396.506 147.709 396.73 147.866 396.998 148.349C397.265 148.831 397.557 149.607 397.821 150.835L398.799 150.624C398.523 149.342 398.205 148.464 397.872 147.864C397.54 147.264 397.174 146.911 396.791 146.742L396.389 147.658ZM394.999 145.897C395.202 146.609 395.653 147.337 396.39 147.658L396.791 146.742C396.428 146.583 396.117 146.171 395.961 145.623L394.999 145.897ZM394.109 143.704C394.413 144.219 394.718 144.928 395 145.899L395.96 145.621C395.662 144.592 395.327 143.801 394.971 143.196L394.109 143.704ZM391.637 144.755C391.542 143.896 391.997 143.31 392.537 143.095C393.067 142.884 393.708 143.011 394.107 143.701L394.973 143.199C394.312 142.059 393.133 141.781 392.168 142.165C391.213 142.545 390.498 143.554 390.643 144.865L391.637 144.755ZM391.18 145.04C391.665 144.919 391.665 144.919 391.665 144.919C391.665 144.92 391.666 144.921 391.666 144.921C391.666 144.922 391.666 144.922 391.666 144.921C391.666 144.921 391.665 144.92 391.665 144.917C391.663 144.911 391.661 144.901 391.658 144.886C391.653 144.857 391.644 144.809 391.636 144.744L390.644 144.876C390.656 144.961 390.667 145.028 390.677 145.076C390.681 145.1 390.685 145.119 390.688 145.134C390.69 145.141 390.691 145.147 390.692 145.151C390.693 145.153 390.693 145.155 390.694 145.157C390.694 145.158 390.694 145.159 390.694 145.159C390.694 145.16 390.695 145.16 390.695 145.16C390.695 145.16 390.695 145.161 391.18 145.04ZM390.691 149.959C390.785 149.907 390.956 149.814 391.111 149.617C391.261 149.428 391.37 149.178 391.453 148.843C391.616 148.184 391.709 147.056 391.68 145.033L390.68 145.047C390.709 147.064 390.612 148.079 390.483 148.602C390.419 148.858 390.357 148.959 390.326 148.998C390.302 149.028 390.286 149.04 390.203 149.087L390.691 149.959ZM390.597 150.06C390.607 150.027 390.616 150.01 390.62 150.004C390.623 149.998 390.623 149.999 390.62 150.001C390.619 150.003 390.619 149.999 390.691 149.959L390.203 149.087C390.144 149.119 390.02 149.185 389.907 149.3C389.786 149.423 389.701 149.575 389.643 149.76L390.597 150.06ZM390.673 151.81C390.615 151.452 390.571 151.082 390.556 150.757C390.54 150.417 390.56 150.18 390.598 150.058L389.642 149.762C389.55 150.06 389.54 150.443 389.557 150.803C389.574 151.178 389.624 151.588 389.686 151.97L390.673 151.81ZM389.005 154.765C390.192 154.378 390.877 153.088 390.674 151.812L389.686 151.968C389.823 152.832 389.348 153.602 388.695 153.815L389.005 154.765ZM377.713 155.93C383.838 156.01 387.217 155.348 389.005 154.765L388.695 153.815C387.043 154.352 383.781 155.01 377.727 154.93L377.713 155.93ZM359.677 154.293C362.731 154.805 369.787 155.83 377.713 155.93L377.727 154.93C369.873 154.83 362.869 153.815 359.843 153.307L359.677 154.293ZM357.671 151.538C357.588 152.846 358.41 154.084 359.679 154.293L359.841 153.307C359.17 153.196 358.612 152.494 358.669 151.602L357.671 151.538ZM360.063 146.085C359.117 146.567 358.558 147.531 358.221 148.517C357.879 149.515 357.732 150.626 357.671 151.536L358.669 151.604C358.727 150.734 358.866 149.72 359.167 148.841C359.472 147.949 359.913 147.283 360.517 146.975L360.063 146.085ZM362.52 142.54C362.023 142.593 362.023 142.593 362.023 142.593V142.591C362.023 142.591 362.023 142.592 362.023 142.593C362.023 142.596 362.023 142.601 362.024 142.608C362.025 142.623 362.027 142.646 362.028 142.679C362.03 142.743 362.032 142.84 362.026 142.961C362.015 143.205 361.977 143.544 361.87 143.916C361.656 144.654 361.172 145.521 360.064 146.084L360.516 146.976C361.928 146.259 362.559 145.131 362.83 144.194C362.965 143.729 363.012 143.31 363.025 143.006C363.032 142.853 363.031 142.728 363.027 142.639C363.025 142.595 363.023 142.559 363.021 142.533C363.02 142.521 363.019 142.51 363.019 142.502C363.018 142.498 363.018 142.495 363.018 142.493C363.018 142.491 363.017 142.49 363.017 142.489V142.487C363.017 142.487 363.017 142.487 362.52 142.54ZM359.51 137.54C359.448 138.036 359.447 138.036 359.447 138.036C359.447 138.036 359.446 138.036 359.445 138.036C359.445 138.036 359.444 138.036 359.444 138.036C359.444 138.036 359.444 138.036 359.445 138.036C359.447 138.036 359.451 138.037 359.458 138.038C359.473 138.041 359.497 138.045 359.53 138.053C359.596 138.068 359.695 138.095 359.817 138.141C360.061 138.233 360.39 138.397 360.718 138.686C361.356 139.249 362.063 140.35 362.02 142.53L363.02 142.55C363.067 140.12 362.269 138.721 361.379 137.936C360.943 137.552 360.503 137.33 360.169 137.205C360.001 137.142 359.859 137.103 359.756 137.079C359.705 137.067 359.662 137.059 359.631 137.053C359.616 137.05 359.603 137.048 359.593 137.047C359.588 137.046 359.584 137.046 359.58 137.045C359.579 137.045 359.577 137.045 359.576 137.044C359.575 137.044 359.574 137.044 359.574 137.044L359.573 137.044C359.573 137.044 359.572 137.044 359.51 137.54ZM358.721 135.337C358.794 136.326 358.849 136.965 358.89 137.368C358.911 137.568 358.929 137.716 358.945 137.82C358.953 137.872 358.961 137.92 358.97 137.961C358.976 137.985 358.993 138.064 359.035 138.141C359.048 138.165 359.072 138.205 359.112 138.248C359.15 138.288 359.23 138.36 359.356 138.393C359.689 138.477 359.875 138.224 359.905 138.177C359.949 138.109 359.967 138.045 359.972 138.026C359.98 137.997 359.985 137.972 359.988 137.955C359.998 137.892 360.003 137.818 360.005 137.768C360.007 137.712 360.009 137.655 360.009 137.613C360.01 137.592 360.01 137.574 360.01 137.561C360.01 137.555 360.01 137.55 360.01 137.546C360.01 137.544 360.01 137.543 360.01 137.542C360.01 137.541 360.01 137.541 360.01 137.541C360.01 137.541 360.01 137.541 360.01 137.541C360.01 137.541 360.01 137.54 359.51 137.54C359.01 137.54 359.01 137.54 359.01 137.54C359.01 137.54 359.01 137.54 359.01 137.54C359.01 137.541 359.01 137.542 359.01 137.543C359.01 137.546 359.01 137.55 359.01 137.555C359.01 137.566 359.01 137.581 359.009 137.599C359.009 137.635 359.008 137.681 359.006 137.723C359.004 137.772 359.001 137.792 359.001 137.791C359.002 137.789 359.004 137.777 359.009 137.759C359.011 137.751 359.025 137.696 359.066 137.633C359.093 137.591 359.275 137.34 359.604 137.424C359.729 137.456 359.806 137.526 359.842 137.564C359.88 137.604 359.902 137.642 359.912 137.661C359.945 137.722 359.952 137.769 359.946 137.742C359.944 137.732 359.94 137.71 359.933 137.669C359.921 137.588 359.905 137.46 359.885 137.265C359.845 136.877 359.791 136.249 359.719 135.263L358.721 135.337ZM357.176 132.032C357.694 132.306 358.551 133.071 358.721 135.337L359.719 135.263C359.528 132.729 358.526 131.614 357.644 131.148L357.176 132.032ZM355.917 130.205C356.048 130.966 356.484 131.68 357.183 132.036L357.637 131.145C357.276 130.961 356.992 130.554 356.903 130.035L355.917 130.205ZM353.278 126.701C353.749 126.533 354.082 126.551 354.328 126.644C354.579 126.74 354.809 126.942 355.021 127.274C355.458 127.959 355.716 129.034 355.917 130.205L356.903 130.035C356.704 128.876 356.422 127.612 355.864 126.736C355.578 126.288 355.197 125.905 354.684 125.71C354.165 125.512 353.581 125.532 352.942 125.759L353.278 126.701ZM352.223 131.288C352.091 130.491 351.986 129.429 352.123 128.506C352.262 127.571 352.62 126.933 353.276 126.702L352.943 125.759C351.759 126.177 351.293 127.294 351.134 128.359C350.974 129.436 351.099 130.62 351.237 131.452L352.223 131.288ZM351.744 133.395C352.178 132.799 352.343 132.032 352.224 131.29L351.236 131.45C351.317 131.948 351.201 132.441 350.936 132.805L351.744 133.395ZM351.304 139.745C351.186 138.968 351.038 137.714 351.057 136.468C351.077 135.192 351.273 134.047 351.745 133.393L350.934 132.808C350.267 133.733 350.078 135.158 350.057 136.452C350.037 137.776 350.194 139.092 350.316 139.895L351.304 139.745ZM351.057 141.374C351.306 140.877 351.389 140.302 351.304 139.745L350.316 139.895C350.371 140.258 350.314 140.623 350.163 140.926L351.057 141.374ZM350.817 145.927C350.541 144.736 350.311 142.848 351.056 141.376L350.164 140.924C349.249 142.732 349.558 144.924 349.843 146.153L350.817 145.927ZM350.288 148.305C350.82 147.649 351.01 146.76 350.817 145.927L349.843 146.153C349.97 146.7 349.84 147.271 349.512 147.675L350.288 148.305ZM347.749 151.454L350.289 148.304L349.511 147.676L346.971 150.826L347.749 151.454ZM347.537 151.814C347.615 151.658 347.676 151.547 347.753 151.449L346.967 150.831C346.823 151.014 346.725 151.202 346.643 151.366L347.537 151.814ZM338.87 159.5C339.168 159.901 339.168 159.901 339.168 159.901C339.168 159.901 339.168 159.901 339.169 159.901C339.169 159.901 339.169 159.901 339.17 159.9C339.171 159.9 339.172 159.899 339.174 159.897C339.177 159.895 339.182 159.891 339.189 159.886C339.202 159.876 339.222 159.861 339.248 159.842C339.299 159.803 339.374 159.747 339.47 159.674C339.662 159.528 339.937 159.316 340.271 159.054C340.938 158.529 341.843 157.8 342.793 156.981C343.741 156.163 344.739 155.251 345.589 154.361C346.43 153.481 347.161 152.587 347.54 151.808L346.64 151.372C346.334 152.003 345.695 152.803 344.866 153.67C344.047 154.528 343.075 155.417 342.14 156.224C341.205 157.03 340.312 157.749 339.653 158.267C339.323 158.526 339.052 158.735 338.864 158.878C338.77 158.95 338.696 159.005 338.647 159.043C338.622 159.061 338.603 159.075 338.59 159.085C338.584 159.09 338.579 159.093 338.576 159.095C338.575 159.097 338.573 159.097 338.573 159.098C338.572 159.098 338.572 159.098 338.572 159.099C338.572 159.099 338.572 159.099 338.87 159.5ZM309.296 173.739C313.836 171.799 321.417 168.56 327.797 165.702C330.985 164.274 333.88 162.938 335.946 161.905C336.977 161.39 337.813 160.945 338.379 160.598C338.658 160.427 338.893 160.267 339.055 160.124C339.132 160.056 339.223 159.966 339.288 159.856C339.346 159.759 339.463 159.496 339.29 159.228L338.45 159.772C338.31 159.556 338.419 159.361 338.427 159.347C338.443 159.321 338.444 159.329 338.393 159.374C338.299 159.457 338.124 159.581 337.856 159.745C337.329 160.068 336.524 160.498 335.499 161.011C333.452 162.033 330.574 163.362 327.388 164.79C321.018 167.644 313.445 170.879 308.903 172.819L309.296 173.739ZM305.347 175.436C305.316 175.457 305.304 175.46 305.378 175.426C305.429 175.402 305.502 175.369 305.599 175.327C305.791 175.242 306.066 175.123 306.414 174.972C307.111 174.672 308.097 174.251 309.296 173.739L308.903 172.819C307.705 173.331 306.717 173.753 306.019 174.054C305.67 174.204 305.391 174.325 305.195 174.412C305.097 174.455 305.017 174.491 304.959 174.518C304.923 174.534 304.844 174.57 304.793 174.604L305.347 175.436ZM302.83 171.841C302.777 173.25 303.14 174.231 303.631 174.838C303.875 175.139 304.154 175.352 304.431 175.467C304.677 175.57 305.048 175.641 305.352 175.433L304.788 174.607C304.902 174.529 304.948 174.599 304.816 174.544C304.716 174.503 304.565 174.403 304.408 174.209C304.1 173.829 303.783 173.1 303.83 171.879L302.83 171.841ZM301.936 170.267C302.176 170.323 302.397 170.437 302.556 170.644C302.714 170.851 302.857 171.208 302.83 171.839L303.829 171.881C303.863 171.082 303.686 170.474 303.349 170.036C303.013 169.598 302.564 169.387 302.164 169.293L301.936 170.267ZM300.208 168.442C300.441 169.292 301.047 170.065 301.939 170.268L302.161 169.292C301.733 169.195 301.339 168.788 301.172 168.178L300.208 168.442ZM297.402 165.629C297.815 165.478 298.137 165.479 298.396 165.556C298.659 165.635 298.905 165.807 299.136 166.075C299.612 166.627 299.956 167.505 300.207 168.44L301.173 168.18C300.914 167.215 300.523 166.153 299.894 165.422C299.573 165.05 299.173 164.745 298.681 164.598C298.184 164.45 297.64 164.477 297.058 164.691L297.402 165.629ZM296.393 169.899C296.266 169.127 296.176 168.142 296.312 167.293C296.45 166.436 296.788 165.853 297.401 165.63L297.059 164.69C295.941 165.097 295.485 166.134 295.325 167.135C295.164 168.143 295.273 169.253 295.407 170.061L296.393 169.899ZM352.268 144.619C352.254 144.558 352.247 144.414 352.612 144.175C352.963 143.945 353.517 143.734 354.202 143.555C355.561 143.201 357.268 143.014 358.439 142.97L358.401 141.97C357.182 142.016 355.399 142.209 353.95 142.587C353.232 142.775 352.552 143.018 352.064 143.338C351.589 143.65 351.136 144.151 351.292 144.84L352.268 144.619ZM350.429 153.557C353.011 149.26 352.568 145.971 352.268 144.621L351.292 144.838C351.552 146.008 351.989 149.02 349.571 153.042L350.429 153.557ZM346.5 162.82C346.992 162.908 346.992 162.908 346.992 162.908C346.992 162.908 346.992 162.907 346.993 162.906C346.993 162.904 346.994 162.9 346.994 162.895C346.996 162.886 346.999 162.872 347.003 162.853C347.01 162.814 347.021 162.757 347.036 162.681C347.067 162.531 347.113 162.31 347.177 162.032C347.305 161.475 347.501 160.687 347.776 159.771C348.328 157.934 349.188 155.598 350.427 153.56L349.573 153.04C348.272 155.181 347.382 157.606 346.819 159.484C346.536 160.425 346.334 161.234 346.202 161.809C346.136 162.096 346.088 162.325 346.056 162.483C346.04 162.562 346.028 162.623 346.02 162.665C346.016 162.686 346.013 162.702 346.011 162.713C346.01 162.719 346.009 162.723 346.009 162.726C346.009 162.728 346.008 162.73 346.008 162.731C346.008 162.731 346.008 162.731 346.5 162.82ZM352.463 178.718L346.973 162.658L346.027 162.982L351.517 179.042L352.463 178.718ZM368.368 182.585C367.992 182.68 367.457 182.703 366.779 182.653C366.109 182.602 365.331 182.482 364.485 182.309C362.793 181.964 360.862 181.418 359.033 180.839C357.206 180.262 355.491 179.655 354.231 179.193C353.602 178.962 353.087 178.767 352.729 178.63C352.551 178.562 352.412 178.508 352.317 178.471C352.27 178.453 352.234 178.439 352.21 178.429C352.198 178.424 352.189 178.421 352.183 178.418C352.18 178.417 352.178 178.416 352.176 178.416C352.175 178.416 352.175 178.415 352.175 178.415C352.175 178.415 352.174 178.415 351.99 178.88C351.806 179.345 351.806 179.345 351.806 179.345C351.806 179.345 351.806 179.345 351.807 179.345C351.807 179.345 351.808 179.345 351.809 179.346C351.81 179.346 351.813 179.347 351.816 179.349C351.822 179.351 351.832 179.355 351.844 179.36C351.869 179.37 351.906 179.384 351.954 179.403C352.05 179.44 352.191 179.495 352.372 179.564C352.733 179.703 353.252 179.899 353.887 180.132C355.155 180.598 356.886 181.209 358.732 181.793C360.575 182.376 362.544 182.934 364.285 183.289C365.155 183.467 365.978 183.595 366.704 183.65C367.424 183.704 368.083 183.688 368.612 183.555L368.368 182.585ZM371.04 178.15C370.557 178.279 370.557 178.279 370.557 178.278C370.557 178.279 370.557 178.281 370.558 178.283C370.559 178.288 370.562 178.297 370.564 178.31C370.57 178.334 370.579 178.372 370.589 178.422C370.608 178.521 370.634 178.667 370.654 178.846C370.694 179.207 370.712 179.688 370.629 180.187C370.547 180.685 370.367 181.183 370.027 181.602C369.692 182.015 369.177 182.382 368.368 182.585L368.612 183.555C369.613 183.303 370.322 182.827 370.804 182.232C371.282 181.643 371.513 180.968 371.616 180.35C371.718 179.733 371.695 179.155 371.648 178.735C371.624 178.524 371.594 178.35 371.569 178.226C371.557 178.165 371.546 178.116 371.538 178.081C371.534 178.063 371.53 178.05 371.528 178.04C371.527 178.035 371.526 178.03 371.525 178.027C371.524 178.026 371.524 178.024 371.524 178.023L371.523 178.022C371.523 178.022 371.523 178.022 371.523 178.021C371.523 178.021 371.523 178.021 371.04 178.15ZM371.178 167.166C368.96 169.137 368.87 172.018 369.268 174.278C369.468 175.42 369.799 176.441 370.078 177.175C370.218 177.542 370.345 177.84 370.439 178.047C370.485 178.15 370.524 178.231 370.55 178.287C370.564 178.315 370.574 178.336 370.582 178.352C370.586 178.359 370.588 178.365 370.591 178.369C370.592 178.371 370.592 178.373 370.593 178.374C370.593 178.375 370.594 178.375 370.594 178.376C370.594 178.376 370.594 178.377 371.04 178.15C371.486 177.923 371.486 177.923 371.486 177.923C371.485 177.923 371.485 177.922 371.484 177.92C371.483 177.918 371.481 177.914 371.478 177.908C371.472 177.896 371.463 177.878 371.451 177.853C371.428 177.805 371.393 177.731 371.35 177.636C371.264 177.445 371.144 177.166 371.013 176.819C370.749 176.125 370.439 175.166 370.252 174.105C369.875 171.956 370.02 169.533 371.842 167.914L371.178 167.166ZM384.052 163.741C381.612 163.585 378.741 164.143 376.338 164.871C375.131 165.237 374.029 165.649 373.143 166.045C372.273 166.433 371.563 166.826 371.179 167.165L371.841 167.915C372.102 167.684 372.69 167.342 373.55 166.958C374.394 166.581 375.456 166.183 376.627 165.828C378.979 165.116 381.718 164.594 383.988 164.739L384.052 163.741ZM388.802 161.614C386.923 162.989 385.709 163.853 384.054 163.741L383.986 164.739C386.069 164.88 387.582 163.746 389.392 162.42L388.802 161.614ZM389.417 161.165C389.205 161.318 389 161.468 388.802 161.614L389.392 162.42C389.591 162.275 389.794 162.126 390.003 161.975L389.417 161.165ZM393.666 160.117C393.222 159.979 392.692 159.809 391.986 159.917C391.294 160.024 390.488 160.387 389.416 161.165L390.004 161.975C391.015 161.24 391.67 160.978 392.138 160.906C392.594 160.835 392.926 160.934 393.369 161.072L393.666 160.117ZM396.692 159.69C395.84 160.152 395.259 160.298 394.825 160.319C394.392 160.34 394.062 160.241 393.666 160.117L393.369 161.072C393.764 161.195 394.245 161.349 394.873 161.318C395.5 161.288 396.229 161.079 397.168 160.569L396.692 159.69ZM398.357 157.907C398.31 158.229 398.278 158.417 398.109 158.645C397.924 158.895 397.543 159.227 396.691 159.691L397.169 160.569C398.065 160.081 398.597 159.665 398.912 159.24C399.243 158.794 399.298 158.382 399.346 158.051L398.357 157.907ZM398.365 157.847C398.362 157.868 398.359 157.888 398.357 157.907L399.346 158.051C399.349 158.031 399.352 158.012 399.355 157.993L398.365 157.847ZM397.015 157.155C396.993 157.163 397.064 157.144 397.267 157.197C397.442 157.243 397.648 157.325 397.841 157.431C398.037 157.538 398.193 157.656 398.288 157.761C398.392 157.876 398.357 157.899 398.366 157.845L399.354 157.995C399.413 157.61 399.214 157.293 399.029 157.09C398.835 156.875 398.577 156.694 398.322 156.554C398.064 156.412 397.781 156.298 397.52 156.23C397.286 156.168 396.972 156.117 396.705 156.205L397.015 157.155ZM388.359 160.054L397.019 157.154L396.701 156.206L388.041 159.106L388.359 160.054ZM362.672 163.303C364.112 163.686 366.454 163.651 369.083 163.415C371.736 163.176 374.758 162.724 377.603 162.229C380.45 161.733 383.127 161.193 385.091 160.776C386.074 160.568 386.879 160.391 387.438 160.266C387.718 160.203 387.937 160.153 388.085 160.119C388.16 160.102 388.217 160.089 388.255 160.08C388.274 160.076 388.289 160.073 388.299 160.07C388.303 160.069 388.307 160.068 388.31 160.068C388.311 160.067 388.312 160.067 388.313 160.067C388.313 160.067 388.314 160.067 388.2 159.58C388.086 159.093 388.086 159.093 388.086 159.093C388.085 159.093 388.084 159.093 388.083 159.094C388.081 159.094 388.077 159.095 388.072 159.096C388.063 159.098 388.049 159.102 388.03 159.106C387.992 159.115 387.936 159.128 387.862 159.145C387.715 159.178 387.498 159.228 387.22 159.29C386.664 159.414 385.863 159.591 384.884 159.798C382.927 160.213 380.263 160.751 377.432 161.244C374.599 161.737 371.608 162.184 368.994 162.419C366.356 162.656 364.178 162.669 362.928 162.337L362.672 163.303ZM362.515 163.262C362.567 163.276 362.619 163.289 362.672 163.303L362.928 162.337C362.874 162.323 362.822 162.309 362.77 162.295L362.515 163.262ZM357.207 160.413C358.102 161.358 358.856 161.93 359.695 162.338C360.519 162.738 361.406 162.97 362.515 163.262L362.77 162.295C361.636 161.996 360.851 161.787 360.132 161.438C359.428 161.096 358.768 160.608 357.933 159.726L357.207 160.413ZM354.793 153.468C354.689 154.455 354.837 155.703 355.23 156.935C355.623 158.17 356.273 159.427 357.207 160.413L357.933 159.726C357.127 158.873 356.542 157.76 356.183 156.632C355.823 155.502 355.701 154.395 355.787 153.572L354.793 153.468ZM354.936 150.39C354.928 151.23 354.919 152.237 354.793 153.468L355.787 153.572C355.919 152.291 355.928 151.241 355.936 150.399L354.936 150.39ZM356.65 146.626C356.263 146.757 355.94 146.934 355.683 147.18C355.422 147.429 355.255 147.724 355.147 148.054C354.945 148.675 354.944 149.477 354.936 150.39L355.936 150.399C355.944 149.421 355.955 148.803 356.098 148.364C356.164 148.163 356.252 148.019 356.374 147.903C356.498 147.784 356.682 147.671 356.97 147.573L356.65 146.626ZM358.438 142.97C359.092 142.945 359.555 142.989 359.869 143.068C360.188 143.149 360.297 143.252 360.331 143.3C360.353 143.332 360.38 143.392 360.341 143.539C360.299 143.696 360.191 143.904 360.003 144.153C359.629 144.647 359.024 145.19 358.377 145.656C357.727 146.123 357.083 146.479 356.649 146.627L356.971 147.573C357.537 147.381 358.273 146.963 358.961 146.467C359.652 145.97 360.343 145.36 360.8 144.757C361.027 144.457 361.219 144.13 361.307 143.796C361.399 143.453 361.388 143.066 361.15 142.727C360.924 142.403 360.552 142.209 360.115 142.099C359.673 141.987 359.105 141.944 358.402 141.97L358.438 142.97Z" fill="#B42025"/>
<path d="M261.033 176L296 170.095C296 170.095 295.266 169.465 295.321 167.383C295.321 167.188 295.201 167.045 295.091 167.136C294.697 167.462 289.418 159.689 287.513 159.064C286.954 158.882 286.374 159.09 285.98 159.65C284.808 161.315 282.015 163.994 278.774 165.88C275.204 167.961 264.493 173.919 261 175.87" fill="#B42025"/>
<path d="M261.033 176L296 170.095C296 170.095 295.266 169.465 295.321 167.383C295.321 167.188 295.201 167.045 295.091 167.136C294.697 167.462 289.418 159.689 287.513 159.064C286.954 158.882 286.374 159.09 285.98 159.65C284.808 161.315 282.015 163.994 278.774 165.88C275.204 167.961 264.493 173.919 261 175.87" stroke="#B42025" stroke-miterlimit="10"/>
</g>
<path fill-rule="evenodd" clip-rule="evenodd" d="M32.7391 110.753L31 228.176L44.595 249H78.0732L91 228.568V201.73H73.757L73.4612 223.046L48.3745 223.476L47.9257 100.467L36.9585 111.508L32.7391 110.753ZM53.9891 94.3635L77.1981 71H82.5538L91 91.5584V117.601H74.7539L74.0966 94.3635H53.9891Z" fill="white"/>
</g>
<path d="M356.5 151L359 154C561.202 -58.9994 -133.676 -73.5001 31.0001 259.5C31.3951 260.299 33.9525 259.077 33.5001 258C-89 -33.5 509.5 -24.5 356.5 151Z" fill="#B42025"/>
<defs>
<clipPath id="clip0_85_57">
<rect width="422" height="208" fill="white" transform="translate(0 41)"/>
</clipPath>
</defs>
</svg>
